<svg xmlns="http://www.w3.org/2000/svg" viewBox="0 0 1024 1024" width="100" height="100"><path fill="#D97757" d="M240 659.52l176-98.56 3.2-8.64-3.2-4.8h-8.64l-29.44-1.92c-90.88-1.92-181.632-5.632-272.32-10.88l-21.44-4.48-19.84-26.24 1.92-13.12 17.92-12.16 25.6 2.24c98.56 6.4 196.8 12.8 294.72 23.04h14.72l1.92-6.08-5.12-3.2-3.84-3.84-87.68-59.52C259.2 389.76 210.88 353.6 152.32 313.6l-13.76-17.28-5.76-37.76 24.32-26.88 32.96 2.24 8.32 2.24c64.96 51.2 131.2 100.48 197.44 149.12l13.76 11.52 5.44-3.84 0.64-2.88-6.4-10.24c-45.76-83.2-81.6-147.84-128-222.72l-6.4-23.04a100.224 100.224 0 0 1-4.16-27.2l27.84-37.76L314.24 64l37.12 5.12 15.68 13.44c44.8 105.92 88.32 189.76 135.36 282.56l9.28 31.04 3.2 9.6h6.08v-5.44c20.8-109.44 0-210.24 39.04-304.96l27.84-18.24 21.76 10.56 17.92 25.6-2.56 16.32c-11.84 83.84-29.44 167.04-44.8 250.24h7.68l9.28-9.28a2207.808 2207.808 0 0 1 157.12-190.08l20.48-16h38.4l28.48 42.24-12.8 43.52a1711.552 1711.552 0 0 0-149.12 207.04l2.88 4.16 7.04-0.64c76.8-18.24 154.88-31.68 232.64-44.8l31.04 14.4 3.2 14.72-11.84 30.08c-96 23.04-192 42.88-288 65.6l-1.6 1.28 1.92 2.24c86.4 8.32 179.84 9.6 255.68 15.04l29.44 19.52 17.6 24-3.2 17.92-44.8 23.36c-93.76-22.4-166.08-39.04-253.12-60.8h-7.04v4.16c69.76 67.84 147.2 136.64 209.28 194.24l4.8 21.76-12.16 16.96-12.8-1.92c-65.28-45.76-124.8-98.88-185.6-150.4h-4.8v6.4l16.64 24.32c36.48 57.28 84.48 104 91.84 171.84l-6.4 13.12-22.4 8-24.96-4.48a2335.36 2335.36 0 0 1-146.56-225.28l-5.44 2.88-24.96 270.72-11.84 13.76L488.96 960l-22.72-17.28-12.16-27.84c19.328-84.416 35.648-169.472 48.96-255.04l6.4-23.36-0.32-1.6-5.12 0.64a2464 2464 0 0 1-199.36 252.16l-15.36 6.4-26.88-14.08 2.56-24.64 15.04-22.08c66.24-82.24 113.28-149.12 177.28-224v-6.08H455.04l-236.8 153.6-41.92 5.44-18.24-16.96 2.24-27.84 8.64-8.96 71.36-48.96H240z"/></svg>
